HIERARCHY
ROOT Hips
{
 OFFSET 0.000000 0.000000 0.000000
 CHANNELS 6 Xposition Yposition Zposition Yrotation Xrotation Zrotation
 JOINT Chest
 {
  OFFSET 0.000000 9.585900 0.002600
  CHANNELS 3 Yrotation Xrotation Zrotation
  JOINT Chest2
  {
   OFFSET 0.000000 9.601200 -0.005300
   CHANNELS 3 Yrotation Xrotation Zrotation
   JOINT Chest3
   {
    OFFSET 0.000000 9.561800 0.000000
    CHANNELS 3 Yrotation Xrotation Zrotation
    JOINT Chest4
    {
     OFFSET 0.000000 9.552100 0.000000
     CHANNELS 3 Yrotation Xrotation Zrotation
     JOINT Neck
     {
      OFFSET 0.000000 14.453000 0.000000
      CHANNELS 3 Yrotation Xrotation Zrotation
      JOINT Head
      {
       OFFSET 0.000000 8.936500 -0.011300
       CHANNELS 3 Yrotation Xrotation Zrotation
       End Site
       {
        OFFSET 0.000000 17.073600 -0.006000
       }
      }
     }
     JOINT RightCollar
     {
      OFFSET -2.921100 9.558500 0.000000
      CHANNELS 3 Yrotation Xrotation Zrotation
      JOINT RightShoulder
      {
       OFFSET -13.519700 0.000000 0.000000
       CHANNELS 3 Yrotation Xrotation Zrotation
       JOINT RightElbow
       {
        OFFSET 0.000000 -29.696600 0.000000
        CHANNELS 3 Yrotation Xrotation Zrotation
        JOINT RightWrist
        {
         OFFSET 0.000000 -24.004700 0.000000
         CHANNELS 3 Yrotation Xrotation Zrotation
         End Site
         {
          OFFSET 0.000000 -17.728500 0.000000
         }
        }
       }
      }
     }
     JOINT LeftCollar
     {
      OFFSET 2.921100 9.558500 0.000000
      CHANNELS 3 Yrotation Xrotation Zrotation
      JOINT LeftShoulder
      {
       OFFSET 13.519700 0.000000 0.000000
       CHANNELS 3 Yrotation Xrotation Zrotation
       JOINT LeftElbow
       {
        OFFSET 0.000000 -29.696600 0.000000
        CHANNELS 3 Yrotation Xrotation Zrotation
        JOINT LeftWrist
        {
         OFFSET 0.000000 -24.004700 0.000000
         CHANNELS 3 Yrotation Xrotation Zrotation
         End Site
         {
          OFFSET 0.000000 -17.728500 0.000000
         }
        }
       }
      }
     }
    }
   }
  }
 }
 JOINT RightHip
 {
  OFFSET -7.771700 -0.012900 -0.001300
  CHANNELS 3 Yrotation Xrotation Zrotation
  JOINT RightKnee
  {
   OFFSET 0.000000 -40.869800 0.001200
   CHANNELS 3 Yrotation Xrotation Zrotation
   JOINT RightAnkle
   {
    OFFSET 0.000000 -39.717900 0.002100
    CHANNELS 3 Yrotation Xrotation Zrotation
    JOINT RightToe
    {
     OFFSET 0.000000 -4.965400 11.033500
     CHANNELS 3 Yrotation Xrotation Zrotation
     End Site
     {
      OFFSET 0.000000 -1.423100 5.872300
     }
    }
   }
  }
 }
 JOINT LeftHip
 {
  OFFSET 7.771700 -0.012900 -0.001300
  CHANNELS 3 Yrotation Xrotation Zrotation
  JOINT LeftKnee
  {
   OFFSET 0.000000 -40.869800 0.001200
   CHANNELS 3 Yrotation Xrotation Zrotation
   JOINT LeftAnkle
   {
    OFFSET 0.000000 -39.717900 0.002100
    CHANNELS 3 Yrotation Xrotation Zrotation
    JOINT LeftToe
    {
     OFFSET 0.000000 -4.965400 11.033500
     CHANNELS 3 Yrotation Xrotation Zrotation
     End Site
     {
      OFFSET 0.000000 -1.423100 5.872300
     }
    }
   }
  }
 }
}
MOTION
Frames: 8
Frame Time: 0.008333
-45.542970 61.472151 12.617912 173.605135 -50.864554 -0.234200 4.296268 25.778033 0.321263 0.662375 4.237501 -0.027942 1.108217 6.756177 -0.035678 3.507820 21.142119 0.368869 1.140979 17.413668 2.844149 1.161134 -3.449362 4.873820 5.436696 6.348843 6.458942 -1.228774 -12.108454 -14.156629 -119.481869 -70.032533 153.353358 23.398043 11.255902 3.489331 -9.352630 2.691551 -0.506003 -10.127410 -9.236023 18.550700 175.710213 -77.038895 168.223676 -1.245723 -4.614722 6.497318 5.795522 -16.350025 -3.635340 0.370802 62.579909 -3.962638 1.738733 -9.264026 11.164570 0.003439 -0.051792 0.081110 3.050536 5.274398 13.935103 140.770423 79.540818 154.009734 -10.433048 -5.633329 -12.089145 2.653569 -49.128277 -5.750585
-45.547572 61.466188 12.626624 173.653564 -50.837115 -0.271492 4.288522 25.752929 0.325392 0.678124 4.240550 -0.032925 1.083302 6.752653 -0.028013 3.508124 21.142258 0.367650 1.150053 17.414005 2.857333 1.212774 -3.444934 4.923963 5.501951 6.336385 6.434526 -1.270909 -12.111378 -14.124092 -119.474127 -70.036724 153.335759 23.406578 11.253960 3.508102 -9.348923 2.685780 -0.501555 -10.066990 -9.245606 18.518632 175.733242 -77.035299 168.140065 -1.222771 -4.610822 6.561156 5.785034 -16.376218 -3.630949 0.378283 62.580935 -3.962045 1.726010 -9.271494 11.164566 -0.004745 -0.050969 0.081567 3.012444 5.200697 13.928779 140.859331 79.514903 154.103801 -10.447709 -5.552841 -12.118574 2.707300 -49.189372 -5.774863
-45.553788 61.464518 12.631427 173.696293 -50.840785 -0.289015 4.278782 25.759957 0.316048 0.662100 4.239128 -0.030921 1.089365 6.754076 -0.030234 3.538610 21.148045 0.345558 1.155392 17.411091 2.904415 1.236815 -3.449952 4.969846 5.500747 6.318850 6.455695 -1.295650 -12.109548 -14.103124 -119.467403 -70.044788 153.343357 23.406726 11.255577 3.495619 -9.354656 2.674642 -0.475248 -10.088033 -9.234645 18.528572 175.674647 -77.043723 168.221406 -1.218678 -4.610125 6.564985 5.805946 -16.364556 -3.637838 0.348125 62.583561 -3.988274 1.708719 -9.280875 11.175873 -0.001731 -0.053437 0.081962 2.977584 5.178147 13.903725 140.860307 79.502518 154.109316 -10.465219 -5.501239 -12.149356 2.669386 -49.228835 -5.724107
-45.562948 61.465066 12.633840 173.701810 -50.859589 -0.255788 4.276983 25.783128 0.282381 0.666329 4.239485 -0.032838 1.090173 6.754268 -0.031115 3.530120 21.145720 0.348071 1.181117 17.412626 2.921682 1.258919 -3.453287 5.015427 5.523930 6.313183 6.444299 -1.303831 -12.104468 -14.085429 -119.468436 -70.045841 153.339169 23.413039 11.263255 3.485874 -9.338312 2.664818 -0.482627 -10.076099 -9.229148 18.514641 175.666468 -77.053175 168.223350 -1.214796 -4.606901 6.567921 5.837296 -16.340442 -3.666793 0.343280 62.594105 -4.003502 1.691769 -9.292662 11.185738 0.005734 -0.056474 0.082481 2.963270 5.174976 13.852317 140.853652 79.498438 154.110407 -10.508993 -5.422253 -12.176601 2.746881 -49.291110 -5.744435
-45.566835 61.463415 12.638441 173.715120 -50.858864 -0.259043 4.271769 25.783521 0.276823 0.683711 4.240513 -0.035588 1.105192 6.751821 -0.039071 3.520881 21.143528 0.346378 1.225262 17.411731 2.961940 1.259201 -3.454815 5.065067 5.521700 6.310603 6.461739 -1.291410 -12.103711 -14.084553 -119.465772 -70.053175 153.335589 23.414776 11.272481 3.469888 -9.321129 2.656952 -0.483315 -10.048434 -9.231665 18.494843 175.718580 -77.060519 168.111214 -1.202141 -4.598023 6.591783 5.855785 -16.338555 -3.666100 0.327555 62.597612 -4.020870 1.681649 -9.296363 11.189259 0.014632 -0.061772 0.067668 2.947021 5.154747 13.832885 140.839907 79.488283 154.103430 -10.538419 -5.384800 -12.169989 2.714773 -49.324860 -5.712120
-45.569747 61.461905 12.642787 173.728934 -50.856813 -0.266737 4.282253 25.781597 0.276946 0.684119 4.239942 -0.036591 1.114268 6.751356 -0.041351 3.523375 21.142050 0.340671 1.243062 17.411238 2.997498 1.285030 -3.456377 5.112797 5.515436 6.308933 6.479940 -1.254482 -12.101576 -14.092060 -119.487917 -70.063872 153.328053 23.414934 11.280971 3.459825 -9.325294 2.658557 -0.471065 -10.033996 -9.233503 18.487039 175.723776 -77.066777 168.084120 -1.188764 -4.588183 6.612459 5.866240 -16.339206 -3.667115 0.309166 62.600633 -4.033838 1.684019 -9.298295 11.184576 0.010950 -0.065158 0.072971 2.931762 5.135855 13.817786 140.828038 79.480035 154.098975 -10.558874 -5.357007 -12.170060 2.709153 -49.346949 -5.700124
-45.573644 61.461778 12.645635 173.754718 -50.863088 -0.276234 4.288688 25.788640 0.275760 0.706190 4.241355 -0.042929 1.092125 6.751015 -0.037190 3.525912 21.141542 0.336559 1.262389 17.409600 3.027277 1.296862 -3.459426 5.149817 5.560028 6.299824 6.458618 -1.315832 -12.101654 -14.044859 -119.476159 -70.091787 153.337394 23.411160 11.278242 3.438282 -9.327739 2.655356 -0.463761 -10.021204 -9.233443 18.480187 175.680618 -77.080710 168.115553 -1.196706 -4.590943 6.605943 5.858772 -16.329761 -3.667115 0.308153 62.606004 -4.049924 1.677754 -9.301042 11.187565 0.008399 -0.070817 0.076868 2.910572 5.130417 13.798210 140.828988 79.478782 154.107265 -10.584386 -5.345146 -12.168073 2.756816 -49.352890 -5.719212
-45.574628 61.462898 12.647538 173.745834 -50.877178 -0.275861 4.334236 25.804930 0.293460 0.697787 4.240671 -0.041096 1.093312 6.751361 -0.038455 3.529146 21.141711 0.332943 1.280775 17.407600 3.057285 1.279775 -3.463708 5.164737 5.563623 6.291056 6.461661 -1.332569 -12.100830 -14.027256 -119.478544 -70.107560 153.342903 23.405910 11.279211 3.439987 -9.339932 2.652236 -0.447816 -10.015946 -9.232881 18.476733 175.618081 -77.094097 168.183948 -1.203939 -4.591286 6.600744 5.887240 -16.312015 -3.645518 0.279828 62.606802 -4.081513 1.662927 -9.301891 11.195192 0.013029 -0.071428 0.061317 2.912248 5.128927 13.796303 140.851394 79.478398 154.137230 -10.590492 -5.291133 -12.194469 2.757965 -49.395587 -5.705558
